<?xml version="1.0" encoding="UTF-8"?>
<svg version="1.1" xmlns="http://www.w3.org/2000/svg" width="32" height="32">
<path d="M0 0 C0.99 0 1.98 0 3 0 C4.60546875 2.08203125 4.60546875 2.08203125 6.1875 4.8125 C6.71730469 5.70582031 7.24710938 6.59914063 7.79296875 7.51953125 C9 10 9 10 9 13 C6.69 13 4.38 13 2 13 C2.01160156 13.78246094 2.02320312 14.56492187 2.03515625 15.37109375 C2.04417969 16.38300781 2.05320312 17.39492188 2.0625 18.4375 C2.07410156 19.44683594 2.08570312 20.45617187 2.09765625 21.49609375 C2 24 2 24 1 25 C-0.78071246 25.08726223 -2.5648314 25.10699041 -4.34765625 25.09765625 C-5.42724609 25.09443359 -6.50683594 25.09121094 -7.61914062 25.08789062 C-8.75544922 25.07951172 -9.89175781 25.07113281 -11.0625 25.0625 C-12.20267578 25.05798828 -13.34285156 25.05347656 -14.51757812 25.04882812 C-17.34507418 25.0369976 -20.17254345 25.0190615 -23 25 C-23 18.73 -23 12.46 -23 6 C-21.59105469 5.98582031 -20.18210937 5.97164062 -18.73046875 5.95703125 C-16.88277953 5.91013558 -15.03512427 5.86188817 -13.1875 5.8125 C-12.25873047 5.80669922 -11.32996094 5.80089844 -10.37304688 5.79492188 C-7.81822711 5.71191329 -5.48684829 5.59654445 -3 5 C-0.99203627 2.58799013 -0.99203627 2.58799013 0 0 Z " fill="#12C2F7" transform="translate(23,4)"/>
<path d="M0 0 C6.6 0 13.2 0 20 0 C17 8 17 8 14 10 C8.6363236 10 4.98773379 6.17666929 1 3 C1 8.28 1 13.56 1 19 C0.67 19 0.34 19 0 19 C0 12.73 0 6.46 0 0 Z " fill="#01AAEF" transform="translate(0,10)"/>
<path d="M0 0 C0.99 0 1.98 0 3 0 C4.60546875 2.08203125 4.60546875 2.08203125 6.1875 4.8125 C6.71730469 5.70582031 7.24710938 6.59914063 7.79296875 7.51953125 C9 10 9 10 9 13 C4.05 12.67 -0.9 12.34 -6 12 C-4.02 8.04 -2.04 4.08 0 0 Z " fill="#FDC74E" transform="translate(23,4)"/>
<path d="M0 0 C3.92902745 1.51803333 6.80772899 4.07783315 9.75 7.0625 C9.75 7.3925 9.75 7.7225 9.75 8.0625 C3.15 8.0625 -3.45 8.0625 -10.25 8.0625 C-8.6 6.4125 -6.95 4.7625 -5.25 3.0625 C-4.755 2.44375 -4.26 1.825 -3.75 1.1875 C-2.25 0.0625 -2.25 0.0625 0 0 Z " fill="#58DBFB" transform="translate(12.25,19.9375)"/>
<path d="M0 0 C3.56521654 1.78260827 6.71455357 3.75992289 10 6 C6.89872546 10.29407243 4.6993132 11.86712454 0 15 C0 10.05 0 5.1 0 0 Z " fill="#00BFFD" transform="translate(1,13)"/>
<path d="M0 0 C0.66 0 1.32 0 2 0 C2.04241723 2.33294775 2.04092937 4.66702567 2 7 C1 8 1 8 -2.5625 8.0625 C-3.696875 8.041875 -4.83125 8.02125 -6 8 C-5.34 6.35 -4.68 4.7 -4 3 C-3.34 3.66 -2.68 4.32 -2 5 C-1.34 3.35 -0.68 1.7 0 0 Z " fill="#D0AB58" transform="translate(23,8)"/>
<path d="M0 0 C0.99 0.33 1.98 0.66 3 1 C2.38245741 2.31602523 1.75571258 3.62773556 1.125 4.9375 C0.77695312 5.66839844 0.42890625 6.39929688 0.0703125 7.15234375 C-1 9 -1 9 -3 10 C-2.25 3.375 -2.25 3.375 0 0 Z " fill="#FBBA39" transform="translate(23,4)"/>
</svg>
